<svg xmlns="http://www.w3.org/2000/svg" width="253" height="43" viewBox="0 0 253 43" fill="none"><path d="M75.1572 13.8935C74.3689 13.4059 73.4073 13.1621 72.268 13.1621C71.605 13.1621 70.9579 13.2601 70.3267 13.4583C69.6956 13.6566 69.1145 13.93 68.5859 14.2809C68.0573 14.634 67.5925 15.0328 67.1869 15.4771C66.8269 15.8736 66.5489 16.2837 66.3461 16.7052C66.1274 16.0399 65.8608 15.4748 65.5395 15.0123C65.0724 14.3401 64.5028 13.8616 63.8306 13.5836C63.1584 13.3034 62.3951 13.1644 61.5475 13.1644C60.8434 13.1644 60.169 13.2624 59.5287 13.4606C58.8862 13.6588 58.296 13.9414 57.7583 14.3151C57.2183 14.6887 56.758 15.1285 56.3752 15.6366C56.2339 15.8234 56.1132 16.0194 56.0015 16.2222L55.9559 13.4765H53.625V29.6975H55.9856V19.8474C55.9856 19.2253 56.1041 18.6466 56.3433 18.1065C56.5825 17.5688 56.9129 17.0926 57.3367 16.6779C57.7606 16.2632 58.2641 15.9374 58.8429 15.6981C59.4239 15.4612 60.055 15.3404 60.7386 15.3404C61.5247 15.3404 62.1878 15.5158 62.7278 15.869C63.2655 16.2222 63.6757 16.7394 63.9559 17.423C64.2362 18.1065 64.3752 18.9656 64.3752 20.0023V29.6975H66.7357V19.877C66.7357 19.2549 66.8542 18.6762 67.0935 18.1362C67.3304 17.5984 67.6631 17.1154 68.0869 16.6916C68.5107 16.2678 69.0188 15.9351 69.609 15.6981C70.1991 15.4612 70.8462 15.3404 71.5503 15.3404C72.3592 15.3404 73.0268 15.5113 73.5554 15.8531C74.084 16.1949 74.4828 16.7075 74.7516 17.3911C75.0205 18.0746 75.1549 18.9564 75.1549 20.0319V29.6975H77.5474V19.9089C77.5474 18.3754 77.3446 17.1131 76.9413 16.1174C76.538 15.1239 75.941 14.3834 75.1549 13.8958L75.1572 13.8935Z" fill="#09193B"></path><path d="M93.739 13.4766L88.8606 26.1248C88.7421 26.462 88.6168 26.8083 88.4892 27.1638C88.4778 27.1341 88.4687 27.1022 88.4573 27.0726C88.291 26.6283 88.1269 26.2387 87.9606 25.9083L82.3986 13.4788H79.7578L87.3089 30.1099L84.5428 36.8476H87.0605L89.8563 29.6998L96.414 13.4788H93.7412L93.739 13.4766Z" fill="#09193B"></path><path d="M103.903 6.43714C103.386 5.99283 102.659 5.76953 101.727 5.76953C100.795 5.76953 100.091 6.00878 99.5511 6.48499C99.0111 6.96121 98.7422 7.57186 98.7422 8.31922C98.7422 9.14861 99.0065 9.78432 99.5351 10.2309C100.064 10.6775 100.793 10.8985 101.727 10.8985C102.661 10.8985 103.359 10.6616 103.887 10.1831C104.416 9.70685 104.68 9.08481 104.68 8.31922C104.68 7.51034 104.42 6.88602 103.903 6.43942V6.43714Z" fill="#09193B"></path><path d="M99.1479 28.4228C99.1479 29.4163 99.034 30.1978 98.8062 30.7697C98.5783 31.3393 98.1955 31.7495 97.6555 31.9978C97.1155 32.2462 96.3704 32.3715 95.418 32.3715L97.3137 36.2245C98.7834 36.2245 100.027 35.9853 101.044 35.5091C102.058 35.0329 102.826 34.3083 103.343 33.3331C103.86 32.3601 104.12 31.1161 104.12 29.6031V13.1953H99.1479V28.4228Z" fill="#09193B"></path><path d="M120.979 13.9723C119.644 13.2272 118.115 12.8535 116.395 12.8535C114.674 12.8535 113.148 13.2272 111.81 13.9723C110.475 14.7174 109.418 15.7336 108.641 17.0187C107.864 18.3038 107.477 19.7734 107.477 21.4322C107.477 23.091 107.864 24.5607 108.641 25.8458C109.418 27.1309 110.475 28.1448 111.81 28.8922C113.146 29.6373 114.674 30.0109 116.395 30.0109C118.115 30.0109 119.642 29.6373 120.979 28.8922C122.314 28.1471 123.367 27.1309 124.133 25.8458C124.898 24.5607 125.283 23.091 125.283 21.4322C125.283 19.7734 124.901 18.3038 124.133 17.0187C123.367 15.7336 122.314 14.7196 120.979 13.9723ZM119.751 23.6379C119.418 24.2804 118.963 24.7885 118.384 25.1599C117.803 25.5336 117.14 25.7204 116.395 25.7204C115.65 25.7204 114.98 25.5336 114.39 25.1599C113.8 24.7862 113.337 24.2804 113.007 23.6379C112.676 22.9953 112.519 22.2593 112.539 21.4322C112.519 20.6028 112.674 19.8623 113.007 19.2106C113.337 18.559 113.8 18.0463 114.39 17.6726C114.98 17.299 115.647 17.1121 116.395 17.1121C117.142 17.1121 117.803 17.299 118.384 17.6726C118.963 18.0463 119.421 18.559 119.751 19.2106C120.081 19.8623 120.236 20.6051 120.218 21.4322C120.239 22.2616 120.084 22.9976 119.751 23.6379Z" fill="#09193B"></path><path d="M142.143 13.956C141.036 13.22 139.766 12.8532 138.335 12.8532C137.652 12.8532 136.989 12.958 136.346 13.1631C135.704 13.3704 135.114 13.6552 134.576 14.0175C134.184 14.2818 133.844 14.5735 133.551 14.8902V5.89453H128.547V29.6643H133.177L133.307 27.903C133.633 28.2698 134.015 28.6002 134.467 28.8873C135.016 29.2405 135.633 29.5185 136.317 29.7258C137 29.9332 137.716 30.0357 138.461 30.0357C139.848 30.0357 141.093 29.6688 142.191 28.9329C143.289 28.1969 144.153 27.183 144.786 25.8865C145.417 24.5923 145.734 23.1044 145.734 21.4274C145.734 19.7503 145.413 18.2944 144.77 17.0001C144.128 15.7059 143.253 14.6897 142.145 13.9537L142.143 13.956ZM140.402 23.7446C140.101 24.3963 139.673 24.909 139.112 25.2827C138.554 25.6563 137.9 25.8432 137.155 25.8432C136.41 25.8432 135.727 25.6563 135.166 25.2827C134.608 24.909 134.173 24.3963 133.86 23.7446C133.551 23.093 133.393 22.3205 133.393 21.4296C133.393 20.5387 133.548 19.7936 133.86 19.1306C134.17 18.4675 134.606 17.9594 135.166 17.6085C135.724 17.2576 136.387 17.0799 137.155 17.0799C137.923 17.0799 138.554 17.2553 139.112 17.6085C139.673 17.9617 140.101 18.4675 140.402 19.1306C140.703 19.7936 140.853 20.5592 140.853 21.4296C140.853 22.3 140.703 23.093 140.402 23.7446Z" fill="#09193B"></path><path d="M161.671 16.2134C161.393 15.7873 161.053 15.3931 160.648 15.0263C160.233 14.6526 159.773 14.3222 159.265 14.0328C158.757 13.7435 158.203 13.5202 157.601 13.3652C157 13.2103 156.378 13.1328 155.738 13.1328C154.266 13.1328 152.942 13.4951 151.759 14.2197C150.579 14.9443 149.64 15.9445 148.948 17.2182C148.253 18.4919 147.906 19.9479 147.906 21.5839C147.906 23.2199 148.248 24.644 148.932 25.92C149.615 27.1937 150.552 28.194 151.743 28.9186C152.935 29.6431 154.286 30.0054 155.799 30.0054C156.793 30.0054 157.736 29.8026 158.627 29.3993C159.518 28.996 160.274 28.456 160.896 27.7838C161.245 27.4056 161.523 27.0091 161.735 26.5944V28.7932C161.735 30.0783 161.511 31.1561 161.067 32.0242C160.621 32.8946 159.98 33.5508 159.139 33.9974C158.301 34.4417 157.28 34.665 156.079 34.665C155.416 34.665 154.762 34.5876 154.122 34.4326C153.48 34.2777 152.885 34.0703 152.336 33.8106C151.787 33.5508 151.306 33.2569 150.891 32.9242L149.959 34.8815C150.663 35.442 151.554 35.9068 152.632 36.2805C153.71 36.6542 154.849 36.8388 156.05 36.8388C157.251 36.8388 158.344 36.6565 159.329 36.2942C160.313 35.9319 161.163 35.4033 161.876 34.7083C162.591 34.0134 163.134 33.1658 163.507 32.1609C163.881 31.1561 164.066 30.0009 164.066 28.6953V13.4746H161.735L161.671 16.2157V16.2134ZM159.016 26.975C158.157 27.5036 157.178 27.7679 156.079 27.7679C154.981 27.7679 153.94 27.499 153.081 26.959C152.222 26.4213 151.547 25.6807 151.062 24.7374C150.574 23.7941 150.333 22.7323 150.333 21.552C150.333 20.3717 150.581 19.2826 151.078 18.3507C151.575 17.4188 152.254 16.6828 153.113 16.145C153.972 15.6073 154.963 15.3362 156.082 15.3362C157.2 15.3362 158.164 15.605 159.035 16.145C159.905 16.6851 160.584 17.4188 161.069 18.3507C161.555 19.2826 161.799 20.3512 161.799 21.552C161.799 22.7528 161.55 23.8511 161.053 24.783C160.557 25.7149 159.878 26.4463 159.019 26.975H159.016Z" fill="#09193B"></path><path d="M170.995 5.89453H168.664V29.6962H170.995V5.89453Z" fill="#09193B"></path><path d="M187.62 16.3364C187.574 16.259 187.531 16.1769 187.481 16.1018C187.098 15.5116 186.622 14.9944 186.052 14.5478C185.482 14.1035 184.835 13.7549 184.111 13.5065C183.386 13.2581 182.598 13.1328 181.75 13.1328C180.321 13.1328 179.032 13.4951 177.881 14.2197C176.73 14.9443 175.814 15.94 175.131 17.2023C174.447 18.4669 174.105 19.916 174.105 21.552C174.105 23.188 174.436 24.6121 175.099 25.8881C175.762 27.1618 176.662 28.1666 177.801 28.9026C178.941 29.6386 180.214 30.0054 181.622 30.0054C182.431 30.0054 183.201 29.8801 183.937 29.6317C184.673 29.3834 185.336 29.0416 185.927 28.6064C186.517 28.1712 187.018 27.6699 187.433 27.1003C187.512 26.9909 187.581 26.8815 187.649 26.7699V29.6933H190.01V13.4769H187.679L187.615 16.3387L187.62 16.3364ZM187.045 24.7716C186.558 25.7149 185.89 26.4486 185.04 26.9772C184.19 27.5059 183.226 27.7702 182.151 27.7702C181.076 27.7702 180.08 27.5013 179.23 26.9613C178.38 26.4236 177.717 25.683 177.241 24.7397C176.765 23.7964 176.525 22.7346 176.525 21.5543C176.525 20.374 176.769 19.2849 177.257 18.353C177.744 17.421 178.407 16.6851 179.246 16.1473C180.084 15.6096 181.053 15.3384 182.151 15.3384C183.249 15.3384 184.193 15.6073 185.04 16.1473C185.89 16.6873 186.558 17.421 187.045 18.353C187.533 19.2849 187.774 20.3535 187.774 21.5543C187.774 22.7551 187.531 23.8283 187.045 24.7716Z" fill="#09193B"></path><path d="M204.215 22.051C203.8 21.7001 203.279 21.3925 202.645 21.1351C202.014 20.8753 201.242 20.6224 200.33 20.374C199.542 20.1667 198.885 19.9662 198.357 19.7679C197.828 19.572 197.418 19.3601 197.129 19.1299C196.901 18.9431 196.725 18.7266 196.6 18.4783C196.477 18.2299 196.413 17.9497 196.413 17.6398C196.413 17.2661 196.491 16.9243 196.646 16.6144C196.801 16.3045 197.028 16.0402 197.329 15.8215C197.63 15.605 197.992 15.4341 198.416 15.3088C198.84 15.1835 199.302 15.122 199.799 15.122C200.36 15.122 200.902 15.2154 201.431 15.4022C201.959 15.5891 202.461 15.8488 202.937 16.1792C203.413 16.5119 203.848 16.8833 204.242 17.298L205.671 15.744C205.215 15.2063 204.666 14.7392 204.024 14.345C203.381 13.9508 202.688 13.65 201.941 13.4427C201.196 13.2353 200.439 13.1328 199.672 13.1328C198.863 13.1328 198.113 13.2422 197.418 13.4586C196.723 13.6751 196.124 13.9987 195.616 14.4225C195.108 14.8463 194.713 15.3384 194.436 15.899C194.155 16.4595 194.016 17.0701 194.016 17.7332C194.016 18.2504 194.094 18.7266 194.249 19.1618C194.404 19.597 194.636 20.0003 194.948 20.374C195.383 20.8297 195.985 21.2285 196.751 21.5703C197.516 21.912 198.48 22.2493 199.64 22.5797C200.344 22.7665 200.945 22.9579 201.442 23.1538C201.939 23.3521 202.322 23.5435 202.593 23.728C203.194 24.1837 203.495 24.7534 203.495 25.4369C203.495 25.8106 203.411 26.1524 203.247 26.4623C203.08 26.7722 202.843 27.0433 202.531 27.2712C202.221 27.499 201.857 27.6699 201.444 27.7838C201.03 27.8978 200.565 27.9547 200.045 27.9547C199.029 27.9547 198.113 27.7679 197.295 27.3942C196.477 27.0205 195.766 26.4737 195.167 25.7468L193.52 27.1755C194.162 28.0254 195.032 28.7089 196.131 29.2262C197.229 29.7434 198.471 30.0031 199.861 30.0031C201 30.0031 202.016 29.8004 202.907 29.3971C203.798 28.9937 204.498 28.4401 205.006 27.7337C205.514 27.0296 205.767 26.2208 205.767 25.3093C205.767 24.6258 205.648 24.0151 205.409 23.4751C205.17 22.9374 204.773 22.4612 204.213 22.0465L204.215 22.051Z" fill="#09193B"></path><path d="M219.098 22.051C218.683 21.7001 218.159 21.3925 217.528 21.1351C216.897 20.8753 216.124 20.6224 215.213 20.374C214.425 20.1667 213.768 19.9662 213.24 19.7679C212.711 19.572 212.303 19.3601 212.012 19.1299C211.784 18.9431 211.608 18.7266 211.483 18.4783C211.358 18.2299 211.296 17.9497 211.296 17.6398C211.296 17.2661 211.374 16.9243 211.528 16.6144C211.683 16.3045 211.911 16.0402 212.212 15.8215C212.513 15.605 212.875 15.4341 213.299 15.3088C213.723 15.1835 214.185 15.122 214.682 15.122C215.24 15.122 215.785 15.2154 216.313 15.4022C216.842 15.5891 217.343 15.8488 217.822 16.1792C218.298 16.5119 218.733 16.8833 219.127 17.298L220.556 15.744C220.1 15.2063 219.551 14.7392 218.909 14.345C218.266 13.9508 217.573 13.65 216.826 13.4427C216.081 13.2353 215.325 13.1328 214.557 13.1328C213.748 13.1328 212.998 13.2422 212.303 13.4586C211.608 13.6751 211.009 13.9987 210.501 14.4225C209.993 14.8463 209.599 15.3384 209.321 15.899C209.04 16.4595 208.901 17.0701 208.901 17.7332C208.901 18.2504 208.979 18.7266 209.134 19.1618C209.289 19.597 209.521 20.0003 209.833 20.374C210.268 20.8297 210.868 21.2285 211.636 21.5703C212.401 21.912 213.365 22.2493 214.525 22.5797C215.229 22.7665 215.83 22.9579 216.327 23.1538C216.824 23.3521 217.207 23.5435 217.478 23.728C218.079 24.1837 218.378 24.7534 218.378 25.4369C218.378 25.8106 218.296 26.1524 218.129 26.4623C217.963 26.7722 217.726 27.0433 217.414 27.2712C217.104 27.499 216.742 27.6699 216.327 27.7838C215.912 27.8978 215.445 27.9547 214.928 27.9547C213.912 27.9547 212.996 27.7679 212.178 27.3942C211.36 27.0205 210.649 26.4737 210.05 25.7468L208.402 27.1755C209.045 28.0254 209.913 28.7089 211.014 29.2262C212.112 29.7434 213.354 30.0031 214.744 30.0031C215.883 30.0031 216.899 29.8004 217.788 29.3971C218.679 28.9937 219.378 28.4401 219.886 27.7337C220.394 27.0296 220.647 26.2208 220.647 25.3093C220.647 24.6258 220.529 24.0151 220.289 23.4751C220.05 22.9374 219.652 22.4612 219.093 22.0465L219.098 22.051Z" fill="#09193B"></path><path d="M236.549 15.3231C235.898 14.6305 235.121 14.0859 234.218 13.6917C233.316 13.2975 232.318 13.1016 231.22 13.1016C230.06 13.1016 228.982 13.3135 227.989 13.7396C226.995 14.1634 226.139 14.7603 225.425 15.5259C224.71 16.2915 224.156 17.1893 223.762 18.2146C223.368 19.24 223.172 20.3861 223.172 21.6484C223.172 23.2844 223.525 24.7358 224.229 25.9981C224.933 27.2627 225.913 28.247 227.166 28.9511C228.419 29.6552 229.855 30.0084 231.47 30.0084C232.3 30.0084 233.106 29.899 233.895 29.6825C234.681 29.4661 235.408 29.1744 236.071 28.8121C236.734 28.4498 237.303 28.0306 237.78 27.5544L236.567 25.8774C235.656 26.6429 234.822 27.1556 234.066 27.4154C233.309 27.6751 232.548 27.805 231.782 27.805C230.477 27.805 229.363 27.5452 228.442 27.028C227.519 26.5108 226.811 25.7794 226.314 24.8383C225.886 24.0272 225.644 23.0907 225.585 22.0266H238.434L238.465 20.9398C238.506 19.8005 238.361 18.7546 238.03 17.8022C237.7 16.8498 237.208 16.0249 236.554 15.3323L236.549 15.3231ZM226.248 18.1052C226.704 17.1938 227.355 16.5057 228.205 16.0386C229.055 15.5715 230.06 15.3391 231.22 15.3391C232.213 15.3391 233.07 15.5556 233.783 15.9908C234.499 16.426 235.052 16.991 235.446 17.6837C235.841 18.3787 236.057 19.0987 236.098 19.8438V20.0602H225.66C225.767 19.3243 225.963 18.6703 226.246 18.103L226.248 18.1052Z" fill="#09193B"></path><path d="M252.646 23.4797C252.406 22.9419 252.008 22.4657 251.449 22.051C251.035 21.7001 250.511 21.3925 249.879 21.1351C249.248 20.8753 248.476 20.6224 247.564 20.374C246.776 20.1667 246.12 19.9662 245.591 19.7679C245.063 19.572 244.655 19.3601 244.363 19.1299C244.135 18.9431 243.96 18.7266 243.835 18.4783C243.709 18.2299 243.648 17.9497 243.648 17.6398C243.648 17.2661 243.725 16.9243 243.88 16.6144C244.035 16.3045 244.263 16.0402 244.564 15.8215C244.864 15.605 245.227 15.4341 245.65 15.3088C246.074 15.1835 246.537 15.122 247.034 15.122C247.592 15.122 248.136 15.2154 248.665 15.4022C249.194 15.5891 249.695 15.8488 250.173 16.1792C250.65 16.5119 251.085 16.8833 251.479 17.298L252.908 15.744C252.452 15.2063 251.903 14.7392 251.26 14.345C250.618 13.9508 249.925 13.65 249.178 13.4427C248.433 13.2353 247.676 13.1328 246.908 13.1328C246.099 13.1328 245.35 13.2422 244.655 13.4586C243.96 13.6751 243.361 13.9987 242.852 14.4225C242.344 14.8463 241.952 15.3384 241.672 15.899C241.392 16.4595 241.253 17.0701 241.253 17.7332C241.253 18.2504 241.33 18.7266 241.485 19.1618C241.64 19.597 241.873 20.0003 242.185 20.374C242.62 20.8297 243.219 21.2285 243.987 21.5703C244.753 21.912 245.717 22.2493 246.876 22.5797C247.58 22.7665 248.182 22.9579 248.679 23.1538C249.175 23.3521 249.558 23.5435 249.829 23.728C250.431 24.1837 250.729 24.7534 250.729 25.4369C250.729 25.8106 250.647 26.1524 250.481 26.4623C250.315 26.7722 250.078 27.0433 249.766 27.2712C249.456 27.499 249.091 27.6699 248.679 27.7838C248.264 27.8978 247.797 27.9547 247.28 27.9547C246.263 27.9547 245.347 27.7679 244.529 27.3942C243.711 27.0205 243.001 26.4737 242.401 25.7468L240.754 27.1755C241.396 28.0254 242.265 28.7089 243.365 29.2262C244.463 29.7434 245.705 30.0031 247.095 30.0031C248.234 30.0031 249.251 29.8004 250.142 29.3971C251.032 28.9937 251.732 28.4401 252.24 27.7337C252.748 27.0296 253.001 26.2208 253.001 25.3093C253.001 24.6258 252.883 24.0151 252.643 23.4751L252.646 23.4797Z" fill="#09193B"></path><path d="M20.4091 16.4174L35.6161 6.26421C36.3361 5.81761 37.1655 6.65156 36.7167 7.3693L26.4928 22.5034C26.2194 22.9386 25.6133 23.0092 25.2488 22.6447L20.2656 17.6638C19.901 17.2992 19.9717 16.6885 20.4091 16.4174Z" fill="#09193B"></path><path d="M22.5362 26.534L7.32917 36.6872C6.60915 37.1338 5.77976 36.2999 6.22863 35.5821L16.4525 20.4481C16.7259 20.0129 17.332 19.9422 17.6965 20.3068L22.6797 25.2877C23.0443 25.6522 22.9736 26.2629 22.5362 26.534Z" fill="#09193B"></path><path d="M39.457 9.90462L37.1579 13.3065C38.4134 15.7354 39.1266 18.4879 39.1266 21.4067C39.1266 31.1771 31.179 39.1247 21.4087 39.1247C18.4807 39.1247 15.7191 38.4069 13.2834 37.1446L9.86328 39.4277C13.1945 41.5673 17.1546 42.8113 21.4087 42.8113C33.2297 42.8113 42.8133 33.2278 42.8133 21.4044C42.8133 17.1686 41.5783 13.2245 39.457 9.90234V9.90462Z" fill="#09193B"></path><path d="M3.68668 21.4046C3.68668 11.6342 11.6342 3.68668 21.4046 3.68668C24.41 3.68668 27.24 4.44088 29.7213 5.76699L33.1232 3.49528C29.7578 1.28738 25.7339 0 21.4069 0C9.58355 0 0 9.58355 0 21.4046C0 25.7134 1.27826 29.7213 3.46794 33.0776L5.75332 29.694C4.43632 27.2195 3.68668 24.3964 3.68668 21.4023V21.4046Z" fill="#09193B"></path></svg>